#!OML:ASF I:\Actors\actors\Patient Classification 1\Patient 1\Session 1\Subject1.ASF
:FULLY-SPECIFIED
:DEGREES
1057
root -0.105994 17.5917 7.33854 8.37534 1.76043 -8.16794
lowerback 5.3578 5.30132 2.77882
upperback -8.72294 7.59723 0.499597
thorax -12.1283 3.43971 -2.17494
lowerneck -11.4364 -13.0549 -8.69413
upperneck 13.9268 -18.7899 13.5941
head 8.34982 -8.36058 3.58421
rclavicle 1.58034e-014 -7.95139e-015
rhumerus -10.5508 11.9362 -84.3106
rradius 43.8086
rwrist 66.2067
rhand -39.9469 -70.9939
rfingers 7.12502
rthumb -12.9166 -259.426
lclavicle 1.58034e-014 -7.95139e-015
lhumerus -35.6786 28.2797 44.1453
lradius 114.221
lwrist 34.6554
lhand -34.7851 -5.9214
lfingers 7.12502
lthumb -7.93735 23.9096
rfemur -0.240986 27.3876 25.1436
rtibia -1.31897
rfoot -15.2785 -27.6822
rtoes 9.11123
lfemur -0.00299837 -34.4445 -11.4343
ltibia -1.09456
lfoot -8.94014 38.7702
ltoes -3.04433
1058
root -0.0925613 17.5935 7.35703 8.36482 2.5677 -8.14922
lowerback 5.29149 5.08473 2.85753
upperback -8.73345 7.31148 0.507195
thorax -12.103 3.29701 -2.16144
lowerneck -11.2945 -13.1183 -8.66847
upperneck 13.401 -18.8163 13.6146
head 8.15294 -8.39904 3.59808
rclavicle 2.39536e-014 3.4191e-014
rhumerus -11.3407 9.95574 -82.0984
rradius 44.643
rwrist 64.1345
rhand -38.4039 -66.8502
rfingers 7.12502
rthumb -11.4288 -263.481
lclavicle 2.39536e-014 3.4191e-014
lhumerus -36.5278 28.1868 43.0285
lradius 114.218
lwrist 35.0787
lhand -35.0741 -5.75668
lfingers 7.12502
lthumb -8.21629 24.0636
rfemur -0.0515441 27.2801 25.2149
rtibia -1.38112
rfoot -15.6254 -28.282
rtoes 9.58069
lfemur -0.267448 -34.4681 -11.3066
ltibia -1.0476
lfoot -8.62547 38.0233
ltoes -3.65693
1059
root -0.0792245 17.5967 7.3738 8.31933 3.18704 -8.1493
lowerback 5.28608 4.88292 2.9651
upperback -8.72929 7.05376 0.543756
thorax -12.0982 3.16555 -2.14255
lowerneck -11.2927 -13.1277 -8.59893
upperneck 13.0947 -18.7549 13.4144
head 8.01496 -8.39618 3.53912
rclavicle 5.07895e-014 -1.90833e-014
rhumerus -11.6397 7.86481 -79.9073
rradius 45.1235
rwrist 63.7976
rhand -39.0006 -66.4468
rfingers 7.12502
rthumb -12.0043 -263.917
lclavicle 5.07895e-014 -1.90833e-014
lhumerus -37.3496 28.1943 41.9112
lradius 114.168
lwrist 35.351
lhand -35.2438 -5.60912
lfingers 7.12502
lthumb -8.38011 24.2046
rfemur 0.166238 27.2335 25.3029
rtibia -1.46954
rfoot -15.9224 -28.7869
rtoes 9.93425
lfemur -0.343001 -34.69 -11.2917
ltibia -1.06095
lfoot -8.35155 37.6655
ltoes -4.22373
1060
root -0.06844 17.6006 7.38591 8.25046 3.59621 -8.21191
lowerback 5.42432 4.68859 3.11826
upperback -8.77466 6.82221 0.596463
thorax -12.2362 3.03733 -2.15234
lowerneck -11.297 -13.0613 -8.48196
upperneck 12.9916 -18.6049 13.1036
head 7.91877 -8.34986 3.44982
rclavicle 2.02263e-014 2.38542e-014
rhumerus -11.3883 5.70203 -77.9985
rradius 45.2923
rwrist 64.2772
rhand -38.77 -65.69
rfingers 7.12502
rthumb -11.7819 -264.661
lclavicle 2.02263e-014 2.38542e-014
lhumerus -38.2483 28.2056 40.7409
lradius 114.171
lwrist 35.5058
lhand -35.5145 -5.45881
lfingers 7.12502
lthumb -8.64131 24.3443
rfemur 0.334859 27.2012 25.4492
rtibia -1.50242
rfoot -16.049 -29.153
rtoes 9.84434
lfemur -0.310905 -34.9622 -11.2642
ltibia -1.09801
lfoot -8.02488 37.5353
ltoes -4.78186
1061
root -0.0581009 17.6028 7.3954 8.16983 3.82824 -8.2356
lowerback 5.54645 4.51657 3.27375
upperback -8.78699 6.61384 0.604789
thorax -12.3197 2.91935 -2.20982
lowerneck -11.3423 -12.9687 -8.3382
upperneck 12.9425 -18.45 12.8977
head 7.85699 -8.28712 3.38712
rclavicle -2.7482e-014 -1.19271e-014
rhumerus -10.4401 3.51717 -76.427
rradius 45.1879
rwrist 65.1689
rhand -37.945 -66.05
rfingers 7.12502
rthumb -10.9862 -264.257
lclavicle -2.7482e-014 -1.19271e-014
lhumerus -39.0188 28.2964 39.7152
lradius 114.263
lwrist 35.7072
lhand -35.8271 -5.30243
lfingers 7.12502
lthumb -8.94293 24.488
rfemur 0.49031 27.1724 25.544
rtibia -1.51346
rfoot -15.9195 -29.4206
rtoes 9.08266
lfemur -0.225152 -35.131 -11.3247
ltibia -1.10556
lfoot -7.8111 37.4448
ltoes -5.08314
1062
root -0.0471688 17.6025 7.40091 8.12254 3.85189 -8.21411
lowerback 5.58517 4.41059 3.43934
upperback -8.75045 6.48418 0.565421
thorax -12.2846 2.8402 -2.32445
lowerneck -11.4157 -12.8804 -8.20867
upperneck 12.8587 -18.3213 12.839
head 7.80966 -8.22524 3.36718
rclavicle 5.09883e-014 2.22639e-014
rhumerus -9.07954 2.29505 -75.3341
rradius 46.0887
rwrist 62.2888
rhand -37.9923 -68.6062
rfingers 7.12502
rthumb -11.0318 -261.704
lclavicle 5.09883e-014 2.22639e-014
lhumerus -39.4935 28.493 38.9932
lradius 114.388
lwrist 35.9854
lhand -35.9481 -5.24976
lfingers 7.12502
lthumb -9.05974 24.5357
rfemur 0.573871 27.1919 25.5342
rtibia -1.50456
rfoot -15.7587 -29.5173
rtoes 8.57119
lfemur -0.176218 -35.0608 -11.4327
ltibia -1.06322
lfoot -7.84063 37.3395
ltoes -4.98094
1063
root -0.0394024 17.6016 7.40204 8.15641 3.58135 -8.19955
lowerback 5.60634 4.40816 3.58727
upperback -8.7598 6.4906 0.490415
thorax -12.2829 2.82472 -2.48891
lowerneck -11.3504 -12.8113 -8.13753
upperneck 12.7298 -18.235 12.9013
head 7.74671 -8.18478 3.39583
rclavicle 9.31803e-014 9.54166e-015
rhumerus -6.49735 1.76154 -74.4219
rradius 45.5649
rwrist 60.1961
rhand -39.4123 -70.4443
rfingers 7.12502
rthumb -12.4012 -259.944
lclavicle 9.31803e-014 9.54166e-015
lhumerus -39.6566 28.6753 38.6015
lradius 114.504
lwrist 36.1079
lhand -35.9613 -5.28859
lfingers 7.12502
lthumb -9.07247 24.4963
rfemur 0.503182 27.2997 25.4587
rtibia -1.46278
rfoot -15.7058 -29.3953
rtoes 8.89668
lfemur -0.157492 -34.8117 -11.4976
ltibia -1.03148
lfoot -8.16359 37.3485
ltoes -4.1761
1064
root -0.03584 17.6022 7.40076 8.2256 3.02233 -8.10818
lowerback 5.66573 4.48769 3.60041
upperback -8.81141 6.59332 0.385332
thorax -12.3587 2.8628 -2.63282
lowerneck -11.212 -12.7412 -8.10519
upperneck 12.6737 -18.1591 12.9827
head 7.70174 -8.15028 3.4375
rclavicle 3.08116e-015 6.36111e-015
rhumerus -4.21268 -0.653642 -74.2655
rradius 45.8071
rwrist 60.704
rhand -41.5063 -71.146
rfingers 7.12502
rthumb -14.4195 -259.375
lclavicle 3.08116e-015 6.36111e-015
lhumerus -39.5921 28.8418 38.5057
lradius 114.582
lwrist 36.0258
lhand -36.0104 -5.34647
lfingers 7.12502
lthumb -9.11987 24.4363
rfemur 0.369766 27.5091 25.2696
rtibia -1.42605
rfoot -15.602 -29.1578
rtoes 9.12279
lfemur -0.0465077 -34.553 -11.6997
ltibia -1.02562
lfoot -8.58329 37.5921
ltoes -3.21026
1065
root -0.0351972 17.6046 7.39825 8.30652 2.27433 -7.97857
lowerback 5.73601 4.60141 3.51366
upperback -8.87857 6.73566 0.315096
thorax -12.4722 2.92951 -2.69331
lowerneck -11.1559 -12.6583 -8.0433
upperneck 12.7928 -18.0505 12.856
head 7.69972 -8.1048 3.40707
rclavicle -7.0171e-014 -1.51076e-014
rhumerus -2.27075 -0.814391 -74.8663
rradius 47.352
rwrist 58.4887
rhand -41.0837 -72.1212
rfingers 7.12502
rthumb -14.0123 -258.371
lclavicle -7.0171e-014 -1.51076e-014
lhumerus -39.4067 29.0115 38.6656
lradius 114.633
lwrist 35.9191
lhand -36.0828 -5.44242
lfingers 7.12502
lthumb -9.18966 24.3373
rfemur 0.197097 27.7543 25.0218
rtibia -1.37372
rfoot -15.2819 -28.8583
rtoes 8.42962
lfemur 0.122445 -34.287 -11.9816
ltibia -1.03633
lfoot -8.93798 37.9971
ltoes -2.66842
1066
root -0.0343146 17.6062 7.39482 8.4532 1.43863 -7.92419
lowerback 5.73139 4.75442 3.50794
upperback -8.98941 6.94241 0.272813
thorax -12.5816 3.02144 -2.77297
lowerneck -11.1528 -12.5981 -7.94703
upperneck 13.0809 -17.9605 12.5248
head 7.7397 -8.07401 3.29908
rclavicle -2.18663e-015 -1.11319e-014
rhumerus -0.11182 -1.21562 -75.7198
rradius 48.6517
rwrist 57.5925
rhand -40.9586 -72.0824
rfingers 7.12502
rthumb -13.8918 -258.402
lclavicle -2.18663e-015 -1.11319e-014
lhumerus -39.031 29.1339 39.1561
lradius 114.66
lwrist 35.7841
lhand -36.0352 -5.64889
lfingers 7.12502
lthumb -9.14376 24.1329
rfemur -0.115886 27.8467 24.7766
rtibia -1.28672
rfoot -14.7789 -28.3418
rtoes 7.43381
lfemur 0.257305 -34.1514 -12.1619
ltibia -1.08575
lfoot -9.33326 38.6105
ltoes -2.00281
1067
root -0.031351 17.6051 7.39251 8.58568 0.49582 -7.92223
lowerback 5.68839 4.96922 3.59115
upperback -9.09357 7.24126 0.230607
thorax -12.643 3.15105 -2.90999
lowerneck -11.1124 -12.5583 -7.91648
upperneck 13.3979 -17.9121 12.2921
head 7.80407 -8.05887 3.22657
rclavicle 4.44284e-014 2.3059e-014
rhumerus 2.02792 -0.622571 -76.6563
rradius 49.894
rwrist 57.0598
rhand -39.4552 -71.3991
rfingers 7.12502
rthumb -12.4426 -258.991
lclavicle 4.44284e-014 2.3059e-014
lhumerus -38.4575 29.2125 40.0087
lradius 114.657
lwrist 35.493
lhand -35.8235 -5.828
lfingers 7.12502
lthumb -8.93953 23.9626
rfemur -0.441844 27.7069 24.5438
rtibia -1.22646
rfoot -14.1406 -27.4712
rtoes 6.40564
lfemur 0.556743 -34.191 -12.4037
ltibia -1.21174
lfoot -9.88004 39.4904
ltoes -0.807191
